<mxfile host="app.diagrams.net" modified="2024-05-26T12:53:16.536Z" agent="Mozilla/5.0 (Windows NT 10.0; Win64; x64) AppleWebKit/537.36 (KHTML, like Gecko) Chrome/125.0.0.0 Safari/537.36" etag="XJMaoTndVsSf_L95i7Z6" version="24.4.8" type="device">
  <diagram name="Page-1" id="kzJpFOPFKFBniMZzsElZ">
    <mxGraphModel dx="1878" dy="1043" grid="1" gridSize="10" guides="1" tooltips="1" connect="1" arrows="1" fold="1" page="1" pageScale="1" pageWidth="827" pageHeight="1169" math="0" shadow="0">
      <root>
        <mxCell id="0" />
        <mxCell id="1" parent="0" />
        <mxCell id="fYHlqhIqnal_8qjBlNAu-3" style="edgeStyle=orthogonalEdgeStyle;rounded=0;orthogonalLoop=1;jettySize=auto;html=1;endArrow=none;endFill=0;fillColor=#dae8fc;strokeColor=#6c8ebf;gradientColor=#7ea6e0;entryX=0.5;entryY=0;entryDx=0;entryDy=0;" edge="1" parent="1" source="fYHlqhIqnal_8qjBlNAu-23" target="fYHlqhIqnal_8qjBlNAu-4">
          <mxGeometry relative="1" as="geometry">
            <mxPoint x="105" y="890" as="targetPoint" />
            <Array as="points">
              <mxPoint x="106" y="890" />
              <mxPoint x="106" y="890" />
            </Array>
          </mxGeometry>
        </mxCell>
        <mxCell id="fYHlqhIqnal_8qjBlNAu-1" value="Main" style="rounded=1;whiteSpace=wrap;html=1;fillColor=#dae8fc;strokeColor=#6c8ebf;fillStyle=auto;gradientColor=#7ea6e0;" vertex="1" parent="1">
          <mxGeometry x="60" y="20" width="90" height="30" as="geometry" />
        </mxCell>
        <mxCell id="fYHlqhIqnal_8qjBlNAu-4" value="Main" style="rounded=1;whiteSpace=wrap;html=1;fillColor=#dae8fc;strokeColor=#6c8ebf;fillStyle=auto;gradientColor=#7ea6e0;" vertex="1" parent="1">
          <mxGeometry x="61" y="1402.5" width="90" height="30" as="geometry" />
        </mxCell>
        <mxCell id="fYHlqhIqnal_8qjBlNAu-5" style="edgeStyle=orthogonalEdgeStyle;rounded=0;orthogonalLoop=1;jettySize=auto;html=1;endArrow=none;endFill=0;fillColor=#d5e8d4;strokeColor=#82b366;gradientColor=#97d077;entryX=0.5;entryY=0;entryDx=0;entryDy=0;" edge="1" parent="1" source="fYHlqhIqnal_8qjBlNAu-6" target="fYHlqhIqnal_8qjBlNAu-7">
          <mxGeometry relative="1" as="geometry">
            <mxPoint x="315" y="890" as="targetPoint" />
          </mxGeometry>
        </mxCell>
        <mxCell id="fYHlqhIqnal_8qjBlNAu-6" value="📃Simple Text" style="rounded=1;whiteSpace=wrap;html=1;fillColor=#d5e8d4;strokeColor=#82b366;fillStyle=auto;gradientColor=#97d077;" vertex="1" parent="1">
          <mxGeometry x="270" y="20" width="90" height="30" as="geometry" />
        </mxCell>
        <mxCell id="fYHlqhIqnal_8qjBlNAu-7" value="📃Simple Text" style="rounded=1;whiteSpace=wrap;html=1;fillColor=#d5e8d4;strokeColor=#82b366;fillStyle=auto;gradientColor=#97d077;" vertex="1" parent="1">
          <mxGeometry x="270" y="1402.5" width="90" height="30" as="geometry" />
        </mxCell>
        <mxCell id="fYHlqhIqnal_8qjBlNAu-9" style="edgeStyle=orthogonalEdgeStyle;rounded=0;orthogonalLoop=1;jettySize=auto;html=1;endArrow=none;endFill=0;fillColor=#ffcd28;strokeColor=#d79b00;gradientColor=#ffa500;entryX=0.5;entryY=0;entryDx=0;entryDy=0;" edge="1" parent="1" source="fYHlqhIqnal_8qjBlNAu-10" target="fYHlqhIqnal_8qjBlNAu-11">
          <mxGeometry relative="1" as="geometry">
            <mxPoint x="536" y="970" as="targetPoint" />
            <Array as="points">
              <mxPoint x="535" y="160" />
              <mxPoint x="536" y="160" />
            </Array>
          </mxGeometry>
        </mxCell>
        <mxCell id="fYHlqhIqnal_8qjBlNAu-10" value="🅱️Bold Text" style="rounded=1;whiteSpace=wrap;html=1;fillColor=#ffcd28;strokeColor=#d79b00;fillStyle=auto;gradientColor=#ffa500;" vertex="1" parent="1">
          <mxGeometry x="491" y="20" width="90" height="30" as="geometry" />
        </mxCell>
        <mxCell id="fYHlqhIqnal_8qjBlNAu-11" value="🅱️Bold Text" style="rounded=1;whiteSpace=wrap;html=1;fillColor=#ffcd28;strokeColor=#d79b00;fillStyle=auto;gradientColor=#ffa500;" vertex="1" parent="1">
          <mxGeometry x="491" y="1405" width="90" height="30" as="geometry" />
        </mxCell>
        <mxCell id="fYHlqhIqnal_8qjBlNAu-12" style="edgeStyle=orthogonalEdgeStyle;rounded=0;orthogonalLoop=1;jettySize=auto;html=1;endArrow=none;endFill=0;fillColor=#e6d0de;strokeColor=#996185;gradientColor=#d5739d;entryX=0.5;entryY=0;entryDx=0;entryDy=0;" edge="1" parent="1" source="fYHlqhIqnal_8qjBlNAu-13" target="fYHlqhIqnal_8qjBlNAu-14">
          <mxGeometry relative="1" as="geometry">
            <mxPoint x="775" y="890" as="targetPoint" />
            <Array as="points">
              <mxPoint x="775" y="1423" />
              <mxPoint x="776" y="1423" />
            </Array>
          </mxGeometry>
        </mxCell>
        <mxCell id="fYHlqhIqnal_8qjBlNAu-13" value="&lt;div&gt;⛎&lt;/div&gt;&lt;div&gt;UnderLine&amp;nbsp;&lt;div&gt;Text&lt;/div&gt;&lt;/div&gt;" style="rounded=1;whiteSpace=wrap;html=1;fillColor=#e6d0de;strokeColor=#996185;fillStyle=auto;gradientColor=#d5739d;" vertex="1" parent="1">
          <mxGeometry x="730" width="90" height="50" as="geometry" />
        </mxCell>
        <mxCell id="fYHlqhIqnal_8qjBlNAu-14" value="&lt;div&gt;⛎&lt;/div&gt;&lt;div&gt;UnderLine&amp;nbsp;&lt;div&gt;Text&lt;/div&gt;&lt;/div&gt;" style="rounded=1;whiteSpace=wrap;html=1;fillColor=#e6d0de;strokeColor=#996185;fillStyle=auto;gradientColor=#d5739d;" vertex="1" parent="1">
          <mxGeometry x="731" y="1402.5" width="90" height="60" as="geometry" />
        </mxCell>
        <mxCell id="fYHlqhIqnal_8qjBlNAu-16" style="edgeStyle=orthogonalEdgeStyle;rounded=0;orthogonalLoop=1;jettySize=auto;html=1;endArrow=none;endFill=0;fillColor=#f8cecc;strokeColor=#b85450;gradientColor=#ea6b66;" edge="1" parent="1" source="fYHlqhIqnal_8qjBlNAu-58" target="fYHlqhIqnal_8qjBlNAu-18">
          <mxGeometry relative="1" as="geometry">
            <mxPoint x="965" y="892.5" as="targetPoint" />
            <Array as="points">
              <mxPoint x="966" y="800" />
              <mxPoint x="966" y="800" />
            </Array>
          </mxGeometry>
        </mxCell>
        <mxCell id="fYHlqhIqnal_8qjBlNAu-17" value="🔧Bold Handler" style="rounded=1;whiteSpace=wrap;html=1;fillColor=#f8cecc;strokeColor=#b85450;fillStyle=auto;gradientColor=#ea6b66;" vertex="1" parent="1">
          <mxGeometry x="920" y="22.5" width="90" height="30" as="geometry" />
        </mxCell>
        <mxCell id="fYHlqhIqnal_8qjBlNAu-18" value="🔧Bold Text" style="rounded=1;whiteSpace=wrap;html=1;fillColor=#f8cecc;strokeColor=#b85450;fillStyle=auto;gradientColor=#ea6b66;" vertex="1" parent="1">
          <mxGeometry x="921" y="1405" width="90" height="30" as="geometry" />
        </mxCell>
        <mxCell id="fYHlqhIqnal_8qjBlNAu-19" style="edgeStyle=orthogonalEdgeStyle;rounded=0;orthogonalLoop=1;jettySize=auto;html=1;endArrow=none;endFill=0;fillColor=#f8cecc;strokeColor=#b85450;gradientColor=#ea6b66;entryX=0.5;entryY=0;entryDx=0;entryDy=0;" edge="1" parent="1" source="fYHlqhIqnal_8qjBlNAu-61" target="fYHlqhIqnal_8qjBlNAu-22">
          <mxGeometry relative="1" as="geometry">
            <mxPoint x="1200" y="862.5" as="targetPoint" />
            <Array as="points">
              <mxPoint x="1185" y="1420" />
            </Array>
          </mxGeometry>
        </mxCell>
        <mxCell id="fYHlqhIqnal_8qjBlNAu-20" value="🔧UnderlLneHandler" style="rounded=1;whiteSpace=wrap;html=1;fillColor=#f8cecc;strokeColor=#b85450;fillStyle=auto;gradientColor=#ea6b66;" vertex="1" parent="1">
          <mxGeometry x="1130" y="12.5" width="110" height="40" as="geometry" />
        </mxCell>
        <mxCell id="fYHlqhIqnal_8qjBlNAu-22" value="🔧UnderlLneHandler" style="rounded=1;whiteSpace=wrap;html=1;fillColor=#f8cecc;strokeColor=#b85450;fillStyle=auto;gradientColor=#ea6b66;" vertex="1" parent="1">
          <mxGeometry x="1131" y="1400" width="110" height="40" as="geometry" />
        </mxCell>
        <mxCell id="fYHlqhIqnal_8qjBlNAu-25" value="" style="edgeStyle=orthogonalEdgeStyle;rounded=0;orthogonalLoop=1;jettySize=auto;html=1;endArrow=none;endFill=0;fillColor=#dae8fc;strokeColor=#6c8ebf;gradientColor=#7ea6e0;" edge="1" parent="1" source="fYHlqhIqnal_8qjBlNAu-1" target="fYHlqhIqnal_8qjBlNAu-23">
          <mxGeometry relative="1" as="geometry">
            <mxPoint x="105" y="890" as="targetPoint" />
            <mxPoint x="105" y="50" as="sourcePoint" />
            <Array as="points">
              <mxPoint x="105" y="100" />
              <mxPoint x="105" y="100" />
            </Array>
          </mxGeometry>
        </mxCell>
        <mxCell id="fYHlqhIqnal_8qjBlNAu-23" value="" style="html=1;points=[[0,0,0,0,5],[0,1,0,0,-5],[1,0,0,0,5],[1,1,0,0,-5]];perimeter=orthogonalPerimeter;outlineConnect=0;targetShapes=umlLifeline;portConstraint=eastwest;newEdgeStyle={&quot;curved&quot;:0,&quot;rounded&quot;:0};fillColor=#dae8fc;gradientColor=#7ea6e0;strokeColor=#6c8ebf;" vertex="1" parent="1">
          <mxGeometry x="100" y="90" width="10" height="1240" as="geometry" />
        </mxCell>
        <mxCell id="fYHlqhIqnal_8qjBlNAu-26" value="Create SimpleText&amp;nbsp;&lt;div&gt;(&quot;Hello World&quot;)&lt;/div&gt;" style="endArrow=classic;endSize=16;endFill=1;html=1;rounded=0;fillColor=#d5e8d4;strokeColor=#82b366;" edge="1" parent="1">
          <mxGeometry width="160" relative="1" as="geometry">
            <mxPoint x="110" y="100" as="sourcePoint" />
            <mxPoint x="310" y="100" as="targetPoint" />
          </mxGeometry>
        </mxCell>
        <mxCell id="fYHlqhIqnal_8qjBlNAu-27" value="Return SimpleText&amp;nbsp;&lt;div&gt;instance&lt;/div&gt;" style="endArrow=open;endSize=12;dashed=1;html=1;rounded=0;fillColor=#d5e8d4;strokeColor=#82b366;" edge="1" parent="1" target="fYHlqhIqnal_8qjBlNAu-23">
          <mxGeometry width="160" relative="1" as="geometry">
            <mxPoint x="310" y="150" as="sourcePoint" />
            <mxPoint x="270" y="170" as="targetPoint" />
            <mxPoint as="offset" />
          </mxGeometry>
        </mxCell>
        <mxCell id="fYHlqhIqnal_8qjBlNAu-28" value="Create BoldText (SimpleText)" style="endArrow=classic;endSize=16;endFill=1;html=1;rounded=0;fillColor=#ffe6cc;strokeColor=#d79b00;" edge="1" parent="1">
          <mxGeometry width="160" relative="1" as="geometry">
            <mxPoint x="110" y="200" as="sourcePoint" />
            <mxPoint x="530" y="200" as="targetPoint" />
            <mxPoint as="offset" />
          </mxGeometry>
        </mxCell>
        <mxCell id="fYHlqhIqnal_8qjBlNAu-29" value="Return BoldText&amp;nbsp;&lt;div&gt;instance&lt;/div&gt;" style="endArrow=open;endSize=12;dashed=1;html=1;rounded=0;fillColor=#ffe6cc;strokeColor=#d79b00;" edge="1" parent="1">
          <mxGeometry width="160" relative="1" as="geometry">
            <mxPoint x="530" y="240" as="sourcePoint" />
            <mxPoint x="110" y="240" as="targetPoint" />
            <mxPoint as="offset" />
          </mxGeometry>
        </mxCell>
        <mxCell id="fYHlqhIqnal_8qjBlNAu-30" value="Create UnderLine(SimpleText)" style="endArrow=classic;endSize=16;endFill=1;html=1;rounded=0;fillColor=#e1d5e7;strokeColor=#9673a6;" edge="1" parent="1">
          <mxGeometry width="160" relative="1" as="geometry">
            <mxPoint x="110" y="300" as="sourcePoint" />
            <mxPoint x="770" y="300" as="targetPoint" />
            <mxPoint as="offset" />
          </mxGeometry>
        </mxCell>
        <mxCell id="fYHlqhIqnal_8qjBlNAu-31" value="Return BoldText&amp;nbsp;&lt;div&gt;instance&lt;/div&gt;" style="endArrow=open;endSize=12;dashed=1;html=1;rounded=0;entryX=1;entryY=0.276;entryDx=0;entryDy=0;entryPerimeter=0;fillColor=#e1d5e7;strokeColor=#9673a6;" edge="1" parent="1">
          <mxGeometry x="0.001" width="160" relative="1" as="geometry">
            <mxPoint x="770" y="340" as="sourcePoint" />
            <mxPoint x="110" y="340" as="targetPoint" />
            <mxPoint as="offset" />
          </mxGeometry>
        </mxCell>
        <mxCell id="fYHlqhIqnal_8qjBlNAu-32" value="Create BoldHandler" style="endArrow=classic;endSize=16;endFill=1;html=1;rounded=0;fillColor=#f8cecc;strokeColor=#b85450;" edge="1" parent="1">
          <mxGeometry width="160" relative="1" as="geometry">
            <mxPoint x="108.5" y="390" as="sourcePoint" />
            <mxPoint x="958.5" y="390" as="targetPoint" />
            <mxPoint as="offset" />
          </mxGeometry>
        </mxCell>
        <mxCell id="fYHlqhIqnal_8qjBlNAu-34" value="Return BoldHandler&amp;nbsp;&lt;div&gt;instance&lt;/div&gt;" style="endArrow=open;endSize=12;dashed=1;html=1;rounded=0;fillColor=#f8cecc;strokeColor=#b85450;" edge="1" parent="1">
          <mxGeometry x="0.001" width="160" relative="1" as="geometry">
            <mxPoint x="968.5" y="420" as="sourcePoint" />
            <mxPoint x="103.5" y="420" as="targetPoint" />
            <mxPoint as="offset" />
          </mxGeometry>
        </mxCell>
        <mxCell id="fYHlqhIqnal_8qjBlNAu-35" value="Create UnderLineHandler" style="endArrow=classic;endSize=16;endFill=1;html=1;rounded=0;fillColor=#f8cecc;strokeColor=#b85450;" edge="1" parent="1">
          <mxGeometry width="160" relative="1" as="geometry">
            <mxPoint x="110" y="470" as="sourcePoint" />
            <mxPoint x="1185" y="471" as="targetPoint" />
            <mxPoint as="offset" />
          </mxGeometry>
        </mxCell>
        <mxCell id="fYHlqhIqnal_8qjBlNAu-36" value="Return UnderLineHandler&amp;nbsp;&lt;div&gt;instance&lt;/div&gt;" style="endArrow=open;endSize=12;dashed=1;html=1;rounded=0;fillColor=#f8cecc;strokeColor=#b85450;" edge="1" parent="1">
          <mxGeometry x="0.001" width="160" relative="1" as="geometry">
            <mxPoint x="1185" y="511" as="sourcePoint" />
            <mxPoint x="115" y="511" as="targetPoint" />
            <mxPoint as="offset" />
          </mxGeometry>
        </mxCell>
        <mxCell id="fYHlqhIqnal_8qjBlNAu-37" value="SetNext(UnderLIneHandler)" style="endArrow=classic;endSize=16;endFill=1;html=1;rounded=0;fillColor=#f8cecc;strokeColor=#b85450;" edge="1" parent="1">
          <mxGeometry width="160" relative="1" as="geometry">
            <mxPoint x="110" y="584" as="sourcePoint" />
            <mxPoint x="960" y="584" as="targetPoint" />
            <mxPoint as="offset" />
          </mxGeometry>
        </mxCell>
        <mxCell id="fYHlqhIqnal_8qjBlNAu-38" value="Set as sethandler" style="endArrow=classic;endSize=16;endFill=1;html=1;rounded=0;fillColor=#f8cecc;strokeColor=#b85450;" edge="1" parent="1">
          <mxGeometry width="160" relative="1" as="geometry">
            <mxPoint x="970" y="620" as="sourcePoint" />
            <mxPoint x="1180" y="620" as="targetPoint" />
          </mxGeometry>
        </mxCell>
        <mxCell id="fYHlqhIqnal_8qjBlNAu-39" value="Handle(BoldText)" style="endArrow=classic;endSize=16;endFill=1;html=1;rounded=0;fillColor=#f8cecc;strokeColor=#b85450;" edge="1" parent="1">
          <mxGeometry width="160" relative="1" as="geometry">
            <mxPoint x="111" y="680" as="sourcePoint" />
            <mxPoint x="961" y="680" as="targetPoint" />
            <mxPoint as="offset" />
          </mxGeometry>
        </mxCell>
        <mxCell id="fYHlqhIqnal_8qjBlNAu-41" value="" style="edgeStyle=orthogonalEdgeStyle;rounded=0;orthogonalLoop=1;jettySize=auto;html=1;endArrow=none;endFill=0;fillColor=#f8cecc;strokeColor=#b85450;gradientColor=#ea6b66;" edge="1" parent="1" source="fYHlqhIqnal_8qjBlNAu-17" target="fYHlqhIqnal_8qjBlNAu-40">
          <mxGeometry relative="1" as="geometry">
            <mxPoint x="966" y="1025" as="targetPoint" />
            <mxPoint x="965" y="53" as="sourcePoint" />
            <Array as="points">
              <mxPoint x="965" y="540" />
              <mxPoint x="965" y="540" />
            </Array>
          </mxGeometry>
        </mxCell>
        <mxCell id="fYHlqhIqnal_8qjBlNAu-40" value="" style="html=1;points=[[0,0,0,0,5],[0,1,0,0,-5],[1,0,0,0,5],[1,1,0,0,-5]];perimeter=orthogonalPerimeter;outlineConnect=0;targetShapes=umlLifeline;portConstraint=eastwest;newEdgeStyle={&quot;curved&quot;:0,&quot;rounded&quot;:0};fillColor=#f8cecc;gradientColor=#ea6b66;strokeColor=#b85450;" vertex="1" parent="1">
          <mxGeometry x="960" y="680" width="10" height="150" as="geometry" />
        </mxCell>
        <mxCell id="fYHlqhIqnal_8qjBlNAu-43" value="Check if BoldText" style="endArrow=classic;endSize=16;endFill=1;html=1;rounded=0;fillColor=#ffe6cc;strokeColor=#d79b00;" edge="1" parent="1" source="fYHlqhIqnal_8qjBlNAu-40">
          <mxGeometry x="0.1429" width="160" relative="1" as="geometry">
            <mxPoint x="910" y="720" as="sourcePoint" />
            <mxPoint x="540" y="720" as="targetPoint" />
            <Array as="points">
              <mxPoint x="760" y="720" />
            </Array>
            <mxPoint as="offset" />
          </mxGeometry>
        </mxCell>
        <mxCell id="fYHlqhIqnal_8qjBlNAu-44" value="Yes" style="endArrow=open;endSize=12;dashed=1;html=1;rounded=0;fillColor=#f8cecc;strokeColor=#b85450;" edge="1" parent="1" target="fYHlqhIqnal_8qjBlNAu-40">
          <mxGeometry width="160" relative="1" as="geometry">
            <mxPoint x="540" y="770" as="sourcePoint" />
            <mxPoint x="700" y="770" as="targetPoint" />
          </mxGeometry>
        </mxCell>
        <mxCell id="fYHlqhIqnal_8qjBlNAu-46" value="Print Hello Wolrd" style="endArrow=classic;endSize=16;endFill=1;html=1;rounded=0;exitX=0;exitY=1;exitDx=0;exitDy=-5;exitPerimeter=0;fillColor=#dae8fc;strokeColor=#6c8ebf;" edge="1" parent="1" source="fYHlqhIqnal_8qjBlNAu-40" target="fYHlqhIqnal_8qjBlNAu-23">
          <mxGeometry width="160" relative="1" as="geometry">
            <mxPoint x="530" y="610" as="sourcePoint" />
            <mxPoint x="690" y="610" as="targetPoint" />
          </mxGeometry>
        </mxCell>
        <mxCell id="fYHlqhIqnal_8qjBlNAu-48" value="Handle(BoldText)" style="endArrow=classic;endSize=16;endFill=1;html=1;rounded=0;fillColor=#f8cecc;strokeColor=#b85450;" edge="1" parent="1">
          <mxGeometry width="160" relative="1" as="geometry">
            <mxPoint x="111" y="900" as="sourcePoint" />
            <mxPoint x="961" y="900" as="targetPoint" />
            <mxPoint as="offset" />
          </mxGeometry>
        </mxCell>
        <mxCell id="fYHlqhIqnal_8qjBlNAu-50" value="" style="edgeStyle=orthogonalEdgeStyle;rounded=0;orthogonalLoop=1;jettySize=auto;html=1;endArrow=none;endFill=0;fillColor=#f8cecc;strokeColor=#b85450;gradientColor=#ea6b66;" edge="1" parent="1" source="fYHlqhIqnal_8qjBlNAu-40" target="fYHlqhIqnal_8qjBlNAu-49">
          <mxGeometry relative="1" as="geometry">
            <mxPoint x="965" y="1425" as="targetPoint" />
            <mxPoint x="965" y="830" as="sourcePoint" />
            <Array as="points">
              <mxPoint x="965" y="890" />
              <mxPoint x="965" y="890" />
            </Array>
          </mxGeometry>
        </mxCell>
        <mxCell id="fYHlqhIqnal_8qjBlNAu-49" value="" style="html=1;points=[[0,0,0,0,5],[0,1,0,0,-5],[1,0,0,0,5],[1,1,0,0,-5]];perimeter=orthogonalPerimeter;outlineConnect=0;targetShapes=umlLifeline;portConstraint=eastwest;newEdgeStyle={&quot;curved&quot;:0,&quot;rounded&quot;:0};fillColor=#f8cecc;gradientColor=#ea6b66;strokeColor=#b85450;" vertex="1" parent="1">
          <mxGeometry x="960" y="890" width="10" height="60" as="geometry" />
        </mxCell>
        <mxCell id="fYHlqhIqnal_8qjBlNAu-51" value="Pass to nexthandle" style="endArrow=classic;endSize=16;endFill=1;html=1;rounded=0;fillColor=#f8cecc;strokeColor=#b85450;" edge="1" parent="1">
          <mxGeometry width="160" relative="1" as="geometry">
            <mxPoint x="970" y="940" as="sourcePoint" />
            <mxPoint x="1180" y="940" as="targetPoint" />
          </mxGeometry>
        </mxCell>
        <mxCell id="fYHlqhIqnal_8qjBlNAu-53" value="Check if UnderLineText" style="endArrow=classic;endSize=16;endFill=1;html=1;rounded=0;fillColor=#e1d5e7;strokeColor=#9673a6;" edge="1" parent="1">
          <mxGeometry x="-0.5" width="160" relative="1" as="geometry">
            <mxPoint x="1180" y="1010" as="sourcePoint" />
            <mxPoint x="780" y="1010" as="targetPoint" />
            <Array as="points">
              <mxPoint x="980" y="1010" />
            </Array>
            <mxPoint as="offset" />
          </mxGeometry>
        </mxCell>
        <mxCell id="fYHlqhIqnal_8qjBlNAu-54" value="" style="html=1;points=[[0,0,0,0,5],[0,1,0,0,-5],[1,0,0,0,5],[1,1,0,0,-5]];perimeter=orthogonalPerimeter;outlineConnect=0;targetShapes=umlLifeline;portConstraint=eastwest;newEdgeStyle={&quot;curved&quot;:0,&quot;rounded&quot;:0};fillColor=#f8cecc;gradientColor=#ea6b66;strokeColor=#b85450;" vertex="1" parent="1">
          <mxGeometry x="1180" y="930" width="10" height="150" as="geometry" />
        </mxCell>
        <mxCell id="fYHlqhIqnal_8qjBlNAu-55" value="Yes" style="endArrow=open;endSize=12;dashed=1;html=1;rounded=0;fillColor=#f8cecc;strokeColor=#b85450;" edge="1" parent="1">
          <mxGeometry width="160" relative="1" as="geometry">
            <mxPoint x="780" y="1050" as="sourcePoint" />
            <mxPoint x="1180" y="1050" as="targetPoint" />
          </mxGeometry>
        </mxCell>
        <mxCell id="fYHlqhIqnal_8qjBlNAu-56" value="Print Hello Wolrd" style="endArrow=classic;endSize=16;endFill=1;html=1;rounded=0;exitX=0;exitY=1;exitDx=0;exitDy=-5;exitPerimeter=0;fillColor=#dae8fc;strokeColor=#6c8ebf;" edge="1" parent="1" target="fYHlqhIqnal_8qjBlNAu-23">
          <mxGeometry width="160" relative="1" as="geometry">
            <mxPoint x="1180" y="1070" as="sourcePoint" />
            <mxPoint x="330" y="1070" as="targetPoint" />
          </mxGeometry>
        </mxCell>
        <mxCell id="fYHlqhIqnal_8qjBlNAu-57" value="Handle(SimpleText)" style="endArrow=classic;endSize=16;endFill=1;html=1;rounded=0;fillColor=#f8cecc;strokeColor=#b85450;" edge="1" parent="1">
          <mxGeometry width="160" relative="1" as="geometry">
            <mxPoint x="111" y="1168" as="sourcePoint" />
            <mxPoint x="961" y="1168" as="targetPoint" />
            <mxPoint as="offset" />
          </mxGeometry>
        </mxCell>
        <mxCell id="fYHlqhIqnal_8qjBlNAu-59" value="" style="edgeStyle=orthogonalEdgeStyle;rounded=0;orthogonalLoop=1;jettySize=auto;html=1;endArrow=none;endFill=0;fillColor=#f8cecc;strokeColor=#b85450;gradientColor=#ea6b66;" edge="1" parent="1" source="fYHlqhIqnal_8qjBlNAu-49" target="fYHlqhIqnal_8qjBlNAu-58">
          <mxGeometry relative="1" as="geometry">
            <mxPoint x="966" y="1425" as="targetPoint" />
            <mxPoint x="966" y="890" as="sourcePoint" />
            <Array as="points">
              <mxPoint x="965" y="1120" />
              <mxPoint x="965" y="1120" />
            </Array>
          </mxGeometry>
        </mxCell>
        <mxCell id="fYHlqhIqnal_8qjBlNAu-58" value="" style="html=1;points=[[0,0,0,0,5],[0,1,0,0,-5],[1,0,0,0,5],[1,1,0,0,-5]];perimeter=orthogonalPerimeter;outlineConnect=0;targetShapes=umlLifeline;portConstraint=eastwest;newEdgeStyle={&quot;curved&quot;:0,&quot;rounded&quot;:0};fillColor=#f8cecc;gradientColor=#ea6b66;strokeColor=#b85450;" vertex="1" parent="1">
          <mxGeometry x="960" y="1160" width="10" height="60" as="geometry" />
        </mxCell>
        <mxCell id="fYHlqhIqnal_8qjBlNAu-60" value="Pass to nexthandle" style="endArrow=classic;endSize=16;endFill=1;html=1;rounded=0;fillColor=#f8cecc;strokeColor=#b85450;" edge="1" parent="1">
          <mxGeometry width="160" relative="1" as="geometry">
            <mxPoint x="970" y="1180" as="sourcePoint" />
            <mxPoint x="1180" y="1180" as="targetPoint" />
          </mxGeometry>
        </mxCell>
        <mxCell id="fYHlqhIqnal_8qjBlNAu-62" value="" style="edgeStyle=orthogonalEdgeStyle;rounded=0;orthogonalLoop=1;jettySize=auto;html=1;endArrow=none;endFill=0;fillColor=#f8cecc;strokeColor=#b85450;gradientColor=#ea6b66;entryX=0.5;entryY=0;entryDx=0;entryDy=0;" edge="1" parent="1" source="fYHlqhIqnal_8qjBlNAu-20" target="fYHlqhIqnal_8qjBlNAu-61">
          <mxGeometry relative="1" as="geometry">
            <mxPoint x="1185" y="1420" as="targetPoint" />
            <mxPoint x="1185" y="53" as="sourcePoint" />
            <Array as="points" />
          </mxGeometry>
        </mxCell>
        <mxCell id="fYHlqhIqnal_8qjBlNAu-61" value="" style="html=1;points=[[0,0,0,0,5],[0,1,0,0,-5],[1,0,0,0,5],[1,1,0,0,-5]];perimeter=orthogonalPerimeter;outlineConnect=0;targetShapes=umlLifeline;portConstraint=eastwest;newEdgeStyle={&quot;curved&quot;:0,&quot;rounded&quot;:0};fillColor=#f8cecc;gradientColor=#ea6b66;strokeColor=#b85450;" vertex="1" parent="1">
          <mxGeometry x="1180" y="1169" width="10" height="150" as="geometry" />
        </mxCell>
        <mxCell id="fYHlqhIqnal_8qjBlNAu-63" value="Pass to nexthandle" style="endArrow=classic;endSize=16;endFill=1;html=1;rounded=0;exitX=0;exitY=1;exitDx=0;exitDy=-5;exitPerimeter=0;fillColor=#d5e8d4;strokeColor=#82b366;" edge="1" parent="1">
          <mxGeometry width="160" relative="1" as="geometry">
            <mxPoint x="1180" y="1220" as="sourcePoint" />
            <mxPoint x="320" y="1220" as="targetPoint" />
          </mxGeometry>
        </mxCell>
        <mxCell id="fYHlqhIqnal_8qjBlNAu-64" value="No nexthandle" style="endArrow=classic;endSize=16;endFill=1;html=1;rounded=0;fillColor=#f8cecc;strokeColor=#b85450;" edge="1" parent="1" target="fYHlqhIqnal_8qjBlNAu-61">
          <mxGeometry width="160" relative="1" as="geometry">
            <mxPoint x="310" y="1260" as="sourcePoint" />
            <mxPoint x="1160" y="1260" as="targetPoint" />
            <mxPoint as="offset" />
          </mxGeometry>
        </mxCell>
        <mxCell id="fYHlqhIqnal_8qjBlNAu-65" value="No action taken" style="endArrow=classic;endSize=16;endFill=1;html=1;rounded=0;exitX=0;exitY=1;exitDx=0;exitDy=-5;exitPerimeter=0;fillColor=#dae8fc;strokeColor=#6c8ebf;" edge="1" parent="1">
          <mxGeometry width="160" relative="1" as="geometry">
            <mxPoint x="1180" y="1300" as="sourcePoint" />
            <mxPoint x="110" y="1300" as="targetPoint" />
          </mxGeometry>
        </mxCell>
      </root>
    </mxGraphModel>
  </diagram>
</mxfile>
